# xmcd
#
# Track frame offsets:
#	150
#	12143
#	30489
#	44362
#	69023
#	84618
#	100937
#	116371
#	135887
#	151927
#	173080
#	195032
#	214632
#	237150
#	256882
#	277074
#
# Disc length: 4154 seconds
#
# Revision: 1
# Processed by: cddbd v1.4b41PL3 Copyright (c) Steve Scherf et al.
# Submitted via: CDmax 1.7.6
#
DISCID=bc103810
DTITLE=Various Artist - S. O. B. Son of Blues
DYEAR=1900
DGENRE=
TTITLE0=Robin Crowe Band - No End In Sight
TTITLE1=Richard Boals and The Soals - Lonely (for Maxx Faulkner)
TTITLE2=Steve Arvey - Poor Boy
TTITLE3=Sally Weisenberg Trio - Northbound Train
TTITLE4=Scotty and The Ligonaires - Missin' You Baby
TTITLE5=The Bill Porter Project - Let The Good Times Roll
TTITLE6=6V6 - It Ain't True
TTITLE7=Hip Pocket - She Needs The Attention
TTITLE8=Sister Groove/Crosstown Jam - Someone Else is Steppin' In
TTITLE9=Easy Money - Where Are You Tonight
TTITLE10=Two Ton Groove - Blue and Lonesome
TTITLE11=Fruteland Jackson - I Claim Nothing But The Blues
TTITLE12=Saffire: The Uppity Blues Women - Middle-Aged Blues Boogie
TTITLE13=The Dave Chastain Band - You Got No Right
TTITLE14=The Blue Deacons - Last Star Fadin'
TTITLE15=Bobbye King and Lady's Choice - Hoochie Coochie Woman
EXTD=GLT: It's a Bluues Thing -  Volume 2
EXTT0=
EXTT1=
EXTT2=
EXTT3=
EXTT4=
EXTT5=
EXTT6=
EXTT7=
EXTT8=
EXTT9=
EXTT10=
EXTT11=
EXTT12=
EXTT13=
EXTT14=
EXTT15=
PLAYORDER=
